REM GENRE Jazz
REM DISCID 730C0608
REM COMMENT "ExactAudioCopy v0.99pb4"
PERFORMER "Andrew Hill"
TITLE "Andrew!!!"
FILE "Andrew Hill - Andrew!!!.wav" WAVE
  TRACK 01 AUDIO
    TITLE "The Griots"
    PERFORMER "Andrew Hill"
    INDEX 01 00:00:00
  TRACK 02 AUDIO
    TITLE "Black Monday"
    PERFORMER "Andrew Hill"
    INDEX 00 06:02:55
    INDEX 01 06:04:73
  TRACK 03 AUDIO
    TITLE "Duplicity"
    PERFORMER "Andrew Hill"
    INDEX 00 14:59:00
    INDEX 01 15:00:53
  TRACK 04 AUDIO
    TITLE "Le Serpent Qui Danse"
    PERFORMER "Andrew Hill"
    INDEX 00 21:09:60
    INDEX 01 21:12:39
  TRACK 05 AUDIO
    TITLE "No Doubt"
    PERFORMER "Andrew Hill"
    INDEX 00 28:05:61
    INDEX 01 28:08:37
  TRACK 06 AUDIO
    TITLE "Symmetry"
    PERFORMER "Andrew Hill"
    INDEX 00 32:29:22
    INDEX 01 32:31:44
  TRACK 07 AUDIO
    TITLE "The Griots (alternate take)"
    PERFORMER "Andrew Hill"
    INDEX 00 39:37:59
    INDEX 01 39:40:37
  TRACK 08 AUDIO
    TITLE "Symmetry (alternate take)"
    PERFORMER "Andrew Hill"
    INDEX 00 44:44:64
    INDEX 01 44:46:55
